<svg width="1200" height="280" viewBox="0 0 1200 280" xmlns="http://www.w3.org/2000/svg" role="img" aria-label="BCS Digital Transformation Enabler">
  <rect width="1200" height="280" fill="#ffffff"/>
  <g transform="translate(28 18)">
    <ellipse cx="106" cy="122" rx="88" ry="106" fill="#2c358b"/>
    <rect x="103" y="18" width="10" height="208" rx="5" fill="#ffffff"/>
    <path d="M106 24c-34 0-62 43-62 98s28 98 62 98" fill="none" stroke="#ffffff" stroke-width="10" stroke-linecap="round"/>
    <path d="M106 54c23 0 42 17 42 38 0 16-9 27-30 36l-22 9c-16 6-23 13-23 24 0 16 15 29 33 29 16 0 30-8 36-22" fill="none" stroke="#ffffff" stroke-width="10" stroke-linecap="round" stroke-linejoin="round"/>
  </g>
  <g transform="translate(250 78)" fill="#2c358b" font-family="Space Grotesk, Segoe UI, Arial, sans-serif">
    <text x="0" y="90" font-size="166" font-weight="700" letter-spacing="8">BCS</text>
    <text x="8" y="148" font-size="52" font-weight="600" letter-spacing="1">Digital Transformation Enabler</text>
  </g>
</svg>
