<svg width="512" height="512" viewBox="0 0 512 512" xmlns="http://www.w3.org/2000/svg" role="img" aria-label="BCS Logo">
  <defs>
    <linearGradient id="bg" x1="0" y1="0" x2="1" y2="1">
      <stop offset="0%" stop-color="#0f4db8"/>
      <stop offset="100%" stop-color="#2aa5f6"/>
    </linearGradient>
    <clipPath id="dropShape">
      <path d="M256 58c66 0 122 49 130 114 1 10 1 20 1 31v105c0 75-57 134-131 146v-56c43-9 74-45 74-90V203c0-51-34-89-82-89-47 0-81 37-81 89v105c0 45 31 81 74 90v56c-74-12-131-71-131-146V203c0-11 0-21 1-31 8-65 64-114 130-114z"/>
    </clipPath>
  </defs>
  <rect width="512" height="512" rx="28" fill="url(#bg)"/>
  <g clip-path="url(#dropShape)">
    <rect x="94" y="58" width="324" height="396" rx="140" fill="#ffffff"/>
  </g>
  <path d="M256 102v310" stroke="#0f4db8" stroke-width="16" stroke-linecap="round"/>
  <path d="M300 162c-11-18-28-27-50-27-29 0-52 18-52 42 0 66 114 30 114 103 0 28-24 48-56 48-25 0-46-11-59-31" fill="none" stroke="#0f4db8" stroke-width="16" stroke-linecap="round"/>
</svg>
